{
  "accessors": [
    {
      "bufferView": 2,
      "componentType": 5126,
      "count": 352,
      "max": [
        0.22499999403953552,
        0.1599999964237213,
        0.10000000149011612
      ],
      "min": [
        -0.22499999403953552,
        -0.1599999964237213,
        -0.10000000149011612
      ],
      "type": "VEC3"
    },
    {
      "bufferView": 2,
      "byteOffset": 4224,
      "componentType": 5126,
      "count": 352,
      "max": [
        1.0,
        1.0,
        1.0
      ],
      "min": [
        -1.0,
        -1.0,
        -1.0
      ],
      "type": "VEC3"
    },
    {
      "bufferView": 3,
      "componentType": 5126,
      "count": 352,
      "max": [
        1.0,
        0.9417473077774048,
        1.0,
        1.0
      ],
      "min": [
        -1.0,
        -0.9417454600334167,
        -1.0,
        -1.0
      ],
      "type": "VEC4"
    },
    {
      "bufferView": 1,
      "componentType": 5126,
      "count": 352,
      "max": [
        0.9417750835418701,
        0.9982028007507324
      ],
      "min": [
        0.0017971992492675781,
        0.0017971992492675781
      ],
      "type": "VEC2"
    },
    {
      "bufferView": 1,
      "byteOffset": 2816,
      "componentType": 5126,
      "count": 352,
      "max": [
        0.9417750835418701,
        0.9982028007507324
      ],
      "min": [
        0.0017971992492675781,
        0.0017971992492675781
      ],
      "type": "VEC2"
    },
    {
      "bufferView": 1,
      "byteOffset": 5632,
      "componentType": 5126,
      "count": 352,
      "max": [
        0.9417750835418701,
        0.9982028007507324
      ],
      "min": [
        0.0017971992492675781,
        0.0017971992492675781
      ],
      "type": "VEC2"
    },
    {
      "bufferView": 0,
      "componentType": 5125,
      "count": 672,
      "type": "SCALAR"
    },
    {
      "bufferView": 2,
      "byteOffset": 8448,
      "componentType": 5126,
      "count": 927,
      "max": [
        0.20689116418361664,
        0.15353736281394958,
        0.08156570792198181
      ],
      "min": [
        -0.20689116418361664,
        -0.1599999964237213,
        -0.08156570792198181
      ],
      "type": "VEC3"
    },
    {
      "bufferView": 2,
      "byteOffset": 19572,
      "componentType": 5126,
      "count": 927,
      "max": [
        1.0,
        1.0,
        1.0
      ],
      "min": [
        -1.0,
        -1.0,
        -1.0
      ],
      "type": "VEC3"
    },
    {
      "bufferView": 1,
      "byteOffset": 8448,
      "componentType": 5126,
      "count": 927,
      "max": [
        0.9985083341598511,
        0.6472740769386292
      ],
      "min": [
        0.0006430772482417524,
        0.0014916994841769338
      ],
      "type": "VEC2"
    },
    {
      "bufferView": 0,
      "byteOffset": 2688,
      "componentType": 5125,
      "count": 1878,
      "type": "SCALAR"
    },
    {
      "bufferView": 2,
      "byteOffset": 30696,
      "componentType": 5126,
      "count": 1028,
      "max": [
        0.06469618529081345,
        0.25499847531318665,
        5.893513232990699e-09
      ],
      "min": [
        -0.3742041289806366,
        -0.06420589238405228,
        -0.3399999141693115
      ],
      "type": "VEC3"
    },
    {
      "bufferView": 2,
      "byteOffset": 43032,
      "componentType": 5126,
      "count": 1028,
      "max": [
        0.9904533624649048,
        0.9906504154205322,
        0.20595884323120117
      ],
      "min": [
        -0.9904533624649048,
        -0.9906505346298218,
        -1.0
      ],
      "type": "VEC3"
    },
    {
      "bufferView": 3,
      "byteOffset": 5632,
      "componentType": 5126,
      "count": 1028,
      "max": [
        0.9988542199134827,
        0.9987056255340576,
        0.9923784732818604,
        1.0
      ],
      "min": [
        -0.9988544583320618,
        -0.9987053871154785,
        -3.7701509427279234e-05,
        -1.0
      ],
      "type": "VEC4"
    },
    {
      "bufferView": 1,
      "byteOffset": 15864,
      "componentType": 5126,
      "count": 1028,
      "max": [
        0.999751091003418,
        0.172496497631073
      ],
      "min": [
        0.00024897014372982085,
        0.0002489689504727721
      ],
      "type": "VEC2"
    },
    {
      "bufferView": 1,
      "byteOffset": 24088,
      "componentType": 5126,
      "count": 1028,
      "max": [
        0.999751091003418,
        0.172496497631073
      ],
      "min": [
        0.00024897014372982085,
        0.0002489689504727721
      ],
      "type": "VEC2"
    },
    {
      "bufferView": 1,
      "byteOffset": 32312,
      "componentType": 5126,
      "count": 1028,
      "max": [
        0.999751091003418,
        0.172496497631073
      ],
      "min": [
        0.00024897014372982085,
        0.0002489689504727721
      ],
      "type": "VEC2"
    },
    {
      "bufferView": 0,
      "byteOffset": 10200,
      "componentType": 5125,
      "count": 1896,
      "type": "SCALAR"
    },
    {
      "bufferView": 2,
      "byteOffset": 55368,
      "componentType": 5126,
      "count": 4,
      "max": [
        0.21112948656082153,
        0.14388954639434814,
        0.08526050299406052
      ],
      "min": [
        -0.21112948656082153,
        0.14388954639434814,
        -0.08526050299406052
      ],
      "type": "VEC3"
    },
    {
      "bufferView": 2,
      "byteOffset": 55416,
      "componentType": 5126,
      "count": 4,
      "max": [
        0.0,
        1.0,
        0.0
      ],
      "min": [
        0.0,
        1.0,
        0.0
      ],
      "type": "VEC3"
    },
    {
      "bufferView": 1,
      "byteOffset": 40536,
      "componentType": 5126,
      "count": 4,
      "max": [
        0.4039037525653839,
        0.9996190071105957
      ],
      "min": [
        0.0003809954214375466,
        0.0003809954214375466
      ],
      "type": "VEC2"
    },
    {
      "bufferView": 0,
      "byteOffset": 17784,
      "componentType": 5125,
      "count": 6,
      "type": "SCALAR"
    }
  ],
  "asset": {
    "extras": {
      "author": "Blaž Mraz (https://sketchfab.com/Mraz3D)",
      "license": "CC-BY-4.0 (http://creativecommons.org/licenses/by/4.0/)",
      "source": "https://sketchfab.com/3d-models/modern-nightstand-65bf302726be4dbdb31fc9394cd83746",
      "title": "Modern Nightstand"
    },
    "generator": "Sketchfab-12.65.0",
    "version": "2.0"
  },
  "bufferViews": [
    {
      "buffer": 0,
      "byteLength": 17808,
      "name": "floatBufferViews",
      "target": 34963
    },
    {
      "buffer": 0,
      "byteLength": 40568,
      "byteOffset": 17808,
      "byteStride": 8,
      "name": "floatBufferViews",
      "target": 34962
    },
    {
      "buffer": 0,
      "byteLength": 55464,
      "byteOffset": 58376,
      "byteStride": 12,
      "name": "floatBufferViews",
      "target": 34962
    },
    {
      "buffer": 0,
      "byteLength": 22080,
      "byteOffset": 113840,
      "byteStride": 16,
      "name": "floatBufferViews",
      "target": 34962
    }
  ],
  "buffers": [
    {
      "byteLength": 135920,
      "uri": "scene.bin"
    }
  ],
  "extensionsUsed": [
    "KHR_texture_transform"
  ],
  "images": [
    {
      "uri": "textures/framelegs_baseColor.jpeg"
    },
    {
      "uri": "textures/framelegs_metallicRoughness.png"
    },
    {
      "uri": "textures/framelegs_normal.png"
    }
  ],
  "materials": [
    {
      "doubleSided": true,
      "name": "back.001__0",
      "pbrMetallicRoughness": {
        "metallicFactor": 0.0,
        "roughnessFactor": 0.6
      }
    },
    {
      "doubleSided": true,
      "name": "framelegs",
      "normalTexture": {
        "extensions": {
          "KHR_texture_transform": {
            "scale": [
              3.000000000000003,
              3.000000000000003
            ]
          }
        },
        "index": 2
      },
      "pbrMetallicRoughness": {
        "baseColorTexture": {
          "extensions": {
            "KHR_texture_transform": {
              "scale": [
                3.000000000000003,
                3.000000000000003
              ]
            }
          },
          "index": 0
        },
        "metallicFactor": 0.0,
        "metallicRoughnessTexture": {
          "index": 1
        }
      }
    },
    {
      "doubleSided": true,
      "name": "Drawer",
      "pbrMetallicRoughness": {
        "baseColorFactor": [
          0.879785,
          0.879785,
          0.879785,
          1.0
        ],
        "metallicFactor": 0.0,
        "roughnessFactor": 0.8032740934415348
      }
    }
  ],
  "meshes": [
    {
      "name": "frame.001_frame/legs_0",
      "primitives": [
        {
          "attributes": {
            "NORMAL": 1,
            "POSITION": 0,
            "TANGENT": 2,
            "TEXCOORD_0": 3,
            "TEXCOORD_1": 4,
            "TEXCOORD_2": 5
          },
          "indices": 6,
          "material": 1,
          "mode": 4
        }
      ]
    },
    {
      "name": "drawer.001_Drawer_0",
      "primitives": [
        {
          "attributes": {
            "NORMAL": 8,
            "POSITION": 7,
            "TEXCOORD_0": 9
          },
          "indices": 10,
          "material": 2,
          "mode": 4
        }
      ]
    },
    {
      "name": "legs.001_frame/legs_0",
      "primitives": [
        {
          "attributes": {
            "NORMAL": 12,
            "POSITION": 11,
            "TANGENT": 13,
            "TEXCOORD_0": 14,
            "TEXCOORD_1": 15,
            "TEXCOORD_2": 16
          },
          "indices": 17,
          "material": 1,
          "mode": 4
        }
      ]
    },
    {
      "name": "back.001__0",
      "primitives": [
        {
          "attributes": {
            "NORMAL": 19,
            "POSITION": 18,
            "TEXCOORD_0": 20
          },
          "indices": 21,
          "material": 0,
          "mode": 4
        }
      ]
    }
  ],
  "nodes": [
    {
      "children": [
        1
      ],
      "matrix": [
        1.0,
        0.0,
        0.0,
        0.0,
        0.0,
        2.220446049250313e-16,
        -1.0,
        0.0,
        0.0,
        1.0,
        2.220446049250313e-16,
        0.0,
        0.0,
        0.0,
        0.0,
        1.0
      ],
      "name": "Sketchfab_model"
    },
    {
      "children": [
        2
      ],
      "matrix": [
        1.0,
        0.0,
        0.0,
        0.0,
        0.0,
        0.0,
        1.0,
        0.0,
        0.0,
        -1.0,
        0.0,
        0.0,
        0.0,
        0.0,
        0.0,
        1.0
      ],
      "name": "ModernNightstand.fbx"
    },
    {
      "children": [
        3
      ],
      "name": "RootNode"
    },
    {
      "children": [
        4,
        6,
        8,
        10
      ],
      "matrix": [
        100.0,
        0.0,
        0.0,
        0.0,
        0.0,
        -1.629206793918314e-05,
        -99.99999999999868,
        0.0,
        0.0,
        99.99999999999868,
        -1.629206793918314e-05,
        0.0,
        0.0,
        0.0,
        0.0,
        1.0
      ],
      "name": "Nightstand"
    },
    {
      "children": [
        5
      ],
      "matrix": [
        1.0,
        0.0,
        0.0,
        0.0,
        0.0,
        1.0,
        -2.646977960169688e-23,
        0.0,
        0.0,
        2.646977960169688e-23,
        1.0,
        0.0,
        0.0,
        0.0,
        0.4401342272758484,
        1.0
      ],
      "name": "frame.001"
    },
    {
      "mesh": 0,
      "name": "frame.001_frame/legs_0"
    },
    {
      "children": [
        7
      ],
      "matrix": [
        1.0,
        0.0,
        0.0,
        0.0,
        0.0,
        1.0,
        -2.646977960169688e-23,
        0.0,
        0.0,
        2.646977960169688e-23,
        1.0,
        0.0,
        0.0,
        0.0,
        0.4401342272758484,
        1.0
      ],
      "name": "drawer.001"
    },
    {
      "mesh": 1,
      "name": "drawer.001_Drawer_0"
    },
    {
      "children": [
        9
      ],
      "matrix": [
        1.0,
        0.0,
        0.0,
        0.0,
        0.0,
        1.0,
        -2.646977960169688e-23,
        0.0,
        0.0,
        2.646977960169688e-23,
        1.0,
        0.0,
        0.15475396811962128,
        -0.09539629518985748,
        0.34013423323631287,
        1.0
      ],
      "name": "legs.001"
    },
    {
      "mesh": 2,
      "name": "legs.001_frame/legs_0"
    },
    {
      "children": [
        11
      ],
      "matrix": [
        1.0,
        0.0,
        0.0,
        0.0,
        0.0,
        1.0,
        -2.646977960169688e-23,
        0.0,
        0.0,
        2.646977960169688e-23,
        1.0,
        0.0,
        0.0,
        0.014028995297849178,
        0.4401342272758484,
        1.0
      ],
      "name": "back.001"
    },
    {
      "mesh": 3,
      "name": "back.001__0"
    }
  ],
  "samplers": [
    {
      "magFilter": 9729,
      "minFilter": 9987,
      "wrapS": 10497,
      "wrapT": 10497
    }
  ],
  "scene": 0,
  "scenes": [
    {
      "name": "Sketchfab_Scene",
      "nodes": [
        0
      ]
    }
  ],
  "textures": [
    {
      "sampler": 0,
      "source": 0
    },
    {
      "sampler": 0,
      "source": 1
    },
    {
      "sampler": 0,
      "source": 2
    }
  ]
}
