{
  "accessors": [
    {
      "bufferView": 2,
      "componentType": 5126,
      "count": 854,
      "max": [
        16.861730575561523,
        184.62741088867188,
        1.712640643119812
      ],
      "min": [
        -16.530904769897461,
        139.90252685546875,
        1.13104248046875
      ],
      "type": "VEC3"
    },
    {
      "bufferView": 2,
      "byteOffset": 10248,
      "componentType": 5126,
      "count": 854,
      "max": [
        1,
        1,
        1
      ],
      "min": [
        -1,
        -1,
        -1
      ],
      "type": "VEC3"
    },
    {
      "bufferView": 3,
      "componentType": 5126,
      "count": 854,
      "max": [
        1,
        1,
        0.43761959671974182,
        1
      ],
      "min": [
        -0.99999982118606567,
        -0.9602934718132019,
        -0.43758559226989746,
        1
      ],
      "type": "VEC4"
    },
    {
      "bufferView": 1,
      "componentType": 5126,
      "count": 854,
      "max": [
        0.98866128921508789,
        0.88387495279312134
      ],
      "min": [
        0.0069110952317714691,
        0.14203085005283356
      ],
      "type": "VEC2"
    },
    {
      "bufferView": 0,
      "componentType": 5125,
      "count": 4224,
      "max": [
        853
      ],
      "min": [
        0
      ],
      "type": "SCALAR"
    },
    {
      "bufferView": 2,
      "byteOffset": 20496,
      "componentType": 5126,
      "count": 516,
      "max": [
        1.4281847476959229,
        188.25477600097656,
        1.0569995641708374
      ],
      "min": [
        -1.4281847476959229,
        0,
        -1.7993699312210083
      ],
      "type": "VEC3"
    },
    {
      "bufferView": 2,
      "byteOffset": 26688,
      "componentType": 5126,
      "count": 516,
      "max": [
        1,
        1,
        1
      ],
      "min": [
        -1,
        -1,
        -1
      ],
      "type": "VEC3"
    },
    {
      "bufferView": 3,
      "byteOffset": 13664,
      "componentType": 5126,
      "count": 516,
      "max": [
        1,
        0.99999833106994629,
        1,
        1
      ],
      "min": [
        -0.86605101823806763,
        -0.99999833106994629,
        -1,
        1
      ],
      "type": "VEC4"
    },
    {
      "bufferView": 1,
      "byteOffset": 6832,
      "componentType": 5126,
      "count": 516,
      "max": [
        0.99800801277160645,
        0.91568690538406372
      ],
      "min": [
        0.0019920319318771362,
        0.0018277185736224055
      ],
      "type": "VEC2"
    },
    {
      "bufferView": 0,
      "byteOffset": 16896,
      "componentType": 5125,
      "count": 2736,
      "max": [
        515
      ],
      "min": [
        0
      ],
      "type": "SCALAR"
    }
  ],
  "asset": {
    "extras": {
      "author": "elouisetrewartha (https://sketchfab.com/etrewarthasae)",
      "license": "CC-BY-NC-4.0 (http://creativecommons.org/licenses/by-nc/4.0/)",
      "source": "https://sketchfab.com/models/1dc798268cce4dc0952680132958d7cc",
      "title": "Speed Limit Sign"
    },
    "generator": "Sketchfab-3.22.5",
    "version": "2.0"
  },
  "bufferViews": [
    {
      "buffer": 0,
      "byteLength": 27840,
      "byteOffset": 0,
      "name": "floatBufferViews",
      "target": 34963
    },
    {
      "buffer": 0,
      "byteLength": 10960,
      "byteOffset": 27840,
      "byteStride": 8,
      "name": "floatBufferViews",
      "target": 34962
    },
    {
      "buffer": 0,
      "byteLength": 32880,
      "byteOffset": 38800,
      "byteStride": 12,
      "name": "floatBufferViews",
      "target": 34962
    },
    {
      "buffer": 0,
      "byteLength": 21920,
      "byteOffset": 71680,
      "byteStride": 16,
      "name": "floatBufferViews",
      "target": 34962
    }
  ],
  "buffers": [
    {
      "byteLength": 93600,
      "uri": "scene.bin"
    }
  ],
  "images": [
    {
      "uri": "textures/speedlimitsign_black_blinn_baseColor.png"
    },
    {
      "uri": "textures/speedlimitsign_blinn_baseColor.png"
    }
  ],
  "materials": [
    {
      "doubleSided": true,
      "emissiveFactor": [
        0,
        0,
        0
      ],
      "name": "speedlimitsign_blinn",
      "pbrMetallicRoughness": {
        "baseColorFactor": [
          1,
          1,
          1,
          1
        ],
        "baseColorTexture": {
          "index": 1,
          "texCoord": 0
        },
        "metallicFactor": 0,
        "roughnessFactor": 0.59999999999999998
      }
    },
    {
      "doubleSided": true,
      "emissiveFactor": [
        0,
        0,
        0
      ],
      "name": "speedlimitsign_black_blinn",
      "pbrMetallicRoughness": {
        "baseColorFactor": [
          1,
          1,
          1,
          1
        ],
        "baseColorTexture": {
          "index": 0,
          "texCoord": 0
        },
        "metallicFactor": 0,
        "roughnessFactor": 0.59999999999999998
      }
    }
  ],
  "meshes": [
    {
      "name": "speedlimitsign_merged_mesh_result_speedlimitsign_blinn_0",
      "primitives": [
        {
          "attributes": {
            "NORMAL": 1,
            "POSITION": 0,
            "TANGENT": 2,
            "TEXCOORD_0": 3
          },
          "indices": 4,
          "material": 0,
          "mode": 4
        }
      ]
    },
    {
      "name": "speedlimitsign_merged_mesh_result_speedlimitsign_black_blinn_0",
      "primitives": [
        {
          "attributes": {
            "NORMAL": 6,
            "POSITION": 5,
            "TANGENT": 7,
            "TEXCOORD_0": 8
          },
          "indices": 9,
          "material": 1,
          "mode": 4
        }
      ]
    }
  ],
  "nodes": [
    {
      "children": [
        1
      ],
      "name": "RootNode (gltf orientation matrix)",
      "rotation": [
        -0.70710678118654746,
        -0,
        -0,
        0.70710678118654757
      ]
    },
    {
      "children": [
        2
      ],
      "name": "RootNode (model correction matrix)"
    },
    {
      "children": [
        3
      ],
      "matrix": [
        1,
        0,
        0,
        0,
        0,
        0,
        1,
        0,
        0,
        -1,
        0,
        0,
        0,
        0,
        0,
        1
      ],
      "name": "f897cd2b6f1748389ac0f5d4ed6bd38c.fbx"
    },
    {
      "children": [
        4
      ],
      "name": "RootNode"
    },
    {
      "children": [
        5,
        6
      ],
      "matrix": [
        1,
        0,
        0,
        0,
        0,
        1,
        0,
        0,
        0,
        0,
        1,
        0,
        -0.16541290283203125,
        0,
        0.043364644050598145,
        1
      ],
      "name": "speedlimitsign_merged_mesh_result"
    },
    {
      "mesh": 0,
      "name": "speedlimitsign_merged_mesh_result_speedlimitsign_blinn_0"
    },
    {
      "mesh": 1,
      "name": "speedlimitsign_merged_mesh_result_speedlimitsign_black_blinn_0"
    }
  ],
  "samplers": [
    {
      "magFilter": 9729,
      "minFilter": 9987,
      "wrapS": 10497,
      "wrapT": 10497
    }
  ],
  "scene": 0,
  "scenes": [
    {
      "name": "OSG_Scene",
      "nodes": [
        0
      ]
    }
  ],
  "textures": [
    {
      "sampler": 0,
      "source": 0
    },
    {
      "sampler": 0,
      "source": 1
    }
  ]
}

